<?xml version="1.0" standalone="no"?>
<!DOCTYPE svg PUBLIC "-//W3C//DTD SVG 20010904//EN"
 "http://www.w3.org/TR/2001/REC-SVG-20010904/DTD/svg10.dtd">
<svg version="1.0" xmlns="http://www.w3.org/2000/svg"
 width="244.000000pt" height="244.000000pt" viewBox="0 0 244.000000 244.000000"
 preserveAspectRatio="xMidYMid meet">
<metadata>
Created by potrace 1.11, written by Peter Selinger 2001-2013
</metadata>
<g transform="translate(0.000000,244.000000) scale(0.100000,-0.100000)"
fill="#000000" stroke="none">
<path d="M1170 2429 c0 -4 -13 -10 -30 -14 -16 -4 -30 -11 -30 -16 0 -12 -32
-8 -42 5 -4 6 -13 4 -22 -3 -11 -10 -16 -10 -16 -2 0 8 -5 9 -19 2 -10 -6 -28
-8 -40 -6 -11 2 -21 0 -21 -4 0 -5 -6 -9 -12 -8 -37 1 -69 -4 -65 -10 3 -5 -9
-9 -26 -9 -18 -1 -43 -5 -57 -9 -14 -3 -34 -8 -45 -9 -11 -2 -24 -4 -28 -5 -5
0 -5 -5 -2 -11 3 -5 -4 -10 -17 -9 -32 1 -54 -5 -70 -19 -8 -6 -17 -9 -21 -6
-3 3 -8 -4 -12 -15 -3 -12 -10 -21 -14 -21 -5 0 -11 -14 -15 -31 -3 -17 -10
-28 -15 -25 -12 8 -58 -30 -66 -55 -4 -11 -20 -34 -37 -51 -30 -30 -55 -84
-49 -103 1 -5 5 -18 7 -28 2 -10 6 -27 9 -36 3 -10 -1 -34 -10 -54 -15 -37
-17 -87 -2 -87 4 0 5 -4 2 -10 -3 -5 -1 -10 5 -10 6 0 8 -4 5 -10 -3 -5 -2
-10 3 -10 5 0 7 -20 5 -45 -3 -28 1 -55 10 -74 9 -17 12 -33 8 -35 -10 -7 -14
-206 -4 -206 4 0 8 -13 8 -30 0 -16 -4 -30 -9 -30 -6 0 -5 -5 2 -12 7 -7 12
-29 12 -50 0 -21 4 -38 9 -38 5 0 7 -9 4 -20 -4 -16 -13 -19 -45 -18 -33 1
-44 -4 -69 -32 -17 -18 -33 -48 -36 -67 -3 -18 -9 -36 -13 -38 -16 -10 34
-199 59 -224 10 -10 16 -21 15 -27 -2 -5 17 -25 41 -44 24 -19 47 -43 50 -52
3 -10 9 -17 13 -17 46 7 54 -4 68 -91 6 -35 12 -65 14 -65 1 0 4 -13 6 -30 3
-16 9 -32 13 -35 4 -3 17 -24 29 -48 12 -24 33 -54 47 -68 14 -14 25 -29 25
-34 0 -6 6 -10 13 -10 8 0 20 -11 27 -25 7 -13 21 -27 32 -31 10 -3 18 -10 18
-15 0 -6 5 -7 10 -4 5 3 10 -1 10 -10 0 -9 4 -14 9 -10 5 3 17 -5 25 -17 9
-12 16 -19 16 -15 0 4 20 -9 45 -27 24 -19 53 -37 64 -41 11 -3 23 -15 26 -26
4 -10 13 -19 21 -19 8 0 14 -5 14 -11 0 -5 4 -8 9 -5 5 3 12 -1 15 -10 3 -8
10 -13 15 -9 5 3 13 1 16 -5 4 -6 15 -8 26 -5 10 4 19 2 19 -3 0 -6 50 -10
115 -11 72 -1 115 2 115 8 0 6 6 8 13 5 17 -6 128 67 120 79 -3 6 -1 7 4 4 6
-4 22 4 37 18 14 13 26 22 26 19 0 -3 7 2 16 10 8 9 22 16 30 16 8 0 13 4 10
8 -3 5 6 15 19 22 14 7 25 17 25 22 0 5 4 7 9 4 5 -3 27 14 50 39 22 24 41 42
41 39 0 -3 16 14 35 38 19 23 40 50 47 58 18 20 58 114 58 134 0 9 4 16 10 16
5 0 7 6 5 13 -7 18 18 118 29 117 5 -1 12 4 17 11 4 7 15 14 25 15 17 3 83 72
84 87 0 5 4 6 8 3 5 -3 14 11 21 30 7 18 18 34 24 34 7 0 13 16 14 37 1 20 8
40 15 44 9 6 9 9 1 9 -9 0 -11 19 -3 40 1 3 2 9 1 14 -1 4 3 13 8 20 6 7 6 17
1 26 -6 8 -10 26 -10 41 0 14 -5 30 -12 37 -7 7 -8 12 -4 12 5 0 -3 11 -18 25
-26 24 -47 30 -93 26 -18 -1 -23 3 -23 22 0 12 5 28 11 34 8 8 8 13 0 17 -8 5
-6 16 4 36 10 19 11 31 4 35 -7 5 -7 11 1 20 7 9 11 62 9 152 -1 85 2 147 9
159 6 11 12 42 13 68 2 26 7 49 11 52 5 3 6 10 3 15 -4 5 -2 9 2 9 15 0 13 43
-3 88 -9 23 -19 42 -23 42 -4 0 -8 7 -8 15 0 8 5 15 10 15 5 0 0 15 -11 34
-15 25 -17 37 -9 45 8 8 8 11 0 11 -6 0 -11 6 -10 13 1 41 -4 67 -13 62 -5 -3
-10 1 -10 10 0 8 -17 23 -37 33 -44 20 -63 36 -63 52 0 6 -20 20 -45 31 -25
11 -52 31 -61 44 -24 37 -124 63 -124 33 0 -10 -2 -10 -9 0 -4 8 -11 13 -15
13 -3 -1 -17 6 -31 15 -13 9 -30 14 -37 12 -7 -3 -20 3 -28 12 -24 26 -75 43
-109 35 -20 -4 -29 -11 -24 -18 5 -9 3 -9 -8 -1 -23 18 -70 23 -76 8 -4 -11
-9 -11 -26 -2 -27 15 -107 27 -107 17z"/>
</g>
</svg>
