<?xml version="1.0" standalone="no"?>
<!DOCTYPE svg PUBLIC "-//W3C//DTD SVG 20010904//EN"
 "http://www.w3.org/TR/2001/REC-SVG-20010904/DTD/svg10.dtd">
<svg version="1.0" xmlns="http://www.w3.org/2000/svg"
 width="244.000000pt" height="244.000000pt" viewBox="0 0 244.000000 244.000000"
 preserveAspectRatio="xMidYMid meet">
<metadata>
Created by potrace 1.11, written by Peter Selinger 2001-2013
</metadata>
<g transform="translate(0.000000,244.000000) scale(0.100000,-0.100000)"
fill="#000000" stroke="none">
<path d="M1144 2410 c-12 -5 -25 -13 -28 -18 -4 -7 -17 -6 -36 1 -22 9 -38 8
-61 0 -17 -7 -37 -9 -44 -7 -21 8 -245 -45 -262 -61 -8 -8 -27 -15 -42 -15
-38 0 -77 -32 -91 -75 -6 -19 -17 -35 -24 -35 -21 0 -66 -40 -66 -59 0 -9 -13
-27 -30 -39 -40 -30 -57 -90 -42 -147 9 -35 8 -50 -5 -84 -15 -38 -15 -44 1
-85 13 -33 18 -88 22 -223 4 -158 14 -271 30 -356 6 -27 5 -27 -33 -21 -54 8
-96 -27 -113 -95 -15 -61 0 -173 31 -233 28 -54 105 -136 148 -157 33 -15 36
-21 58 -113 12 -53 34 -120 48 -148 33 -66 168 -201 270 -269 44 -30 98 -70
119 -88 54 -45 114 -62 231 -64 118 -3 147 7 250 85 39 29 102 76 142 104 82
61 181 162 217 224 13 24 32 77 41 118 10 41 20 88 24 104 5 21 19 36 48 52
78 41 146 135 169 231 37 156 -16 270 -115 248 -37 -8 -37 -6 -16 115 10 52
15 133 14 210 -1 79 2 133 9 147 7 12 12 39 12 61 0 22 7 53 15 68 20 40 19
82 -5 129 -11 22 -20 48 -20 58 0 10 -5 28 -12 40 -7 12 -11 34 -9 49 4 46
-26 94 -74 117 -24 11 -46 29 -49 39 -6 18 -44 42 -66 42 -6 0 -25 17 -44 38
-32 35 -38 37 -92 36 -43 0 -63 5 -76 18 -10 10 -27 18 -39 18 -12 0 -35 12
-52 26 -26 22 -37 25 -72 20 -47 -7 -139 -8 -210 -1 -27 2 -60 0 -71 -5z m446
-614 c108 -17 162 -34 213 -68 47 -30 55 -51 63 -150 3 -48 14 -101 25 -126
52 -114 52 -117 40 -211 -6 -48 -11 -134 -11 -190 0 -68 -6 -128 -19 -179 -11
-43 -31 -135 -46 -207 -34 -169 -64 -230 -156 -320 -63 -62 -70 -67 -63 -40 5
17 9 58 9 92 -1 36 3 59 9 56 5 -4 6 6 2 23 -8 37 -65 88 -113 101 -24 7 -151
10 -338 10 -283 -2 -302 -3 -340 -23 -43 -22 -85 -75 -85 -106 0 -11 3 -17 8
-15 4 3 7 -18 7 -46 0 -29 4 -68 8 -87 8 -34 6 -33 -68 43 -73 74 -125 158
-125 200 0 10 -20 103 -45 206 -36 152 -45 205 -45 279 0 50 -5 136 -11 191
l-12 100 41 78 c36 71 40 86 44 169 3 65 9 99 22 119 35 53 163 94 356 114
130 13 513 5 630 -13z m-1132 -668 c7 -7 12 -18 12 -26 0 -12 -4 -11 -25 2
-13 9 -32 16 -42 16 -14 0 -12 -5 10 -28 26 -27 26 -27 10 -73 -14 -39 -15
-51 -4 -77 18 -42 31 -41 24 2 -3 19 0 42 6 52 9 16 10 14 11 -16 0 -35 10
-82 25 -130 l8 -24 -27 18 c-26 17 -27 17 -18 -1 6 -10 22 -28 36 -40 25 -22
35 -53 17 -53 -17 0 -93 92 -114 138 -26 57 -31 208 -8 235 16 20 62 22 79 5z
m1606 -10 c21 -29 21 -137 1 -204 -14 -48 -87 -144 -124 -164 -28 -15 -14 35
15 55 13 8 28 24 34 36 11 19 10 20 -10 9 -22 -12 -22 -11 -16 27 4 21 10 63
15 93 6 49 8 52 15 27 5 -15 6 -41 2 -57 -6 -34 8 -40 24 -11 13 26 13 67 -2
108 -11 29 -10 35 12 58 22 23 22 25 4 25 -11 0 -30 -7 -42 -16 -18 -12 -22
-12 -22 -2 0 41 69 52 94 16z m-577 -623 c-16 -49 -522 -50 -540 -1 -3 8 72
11 269 11 178 0 273 -3 271 -10z m88 -55 c17 -70 -165 -197 -252 -175 -25 6
-55 56 -38 62 18 6 40 22 35 25 -3 2 -50 1 -105 -2 -68 -3 -93 -8 -77 -13 27
-10 28 -17 0 -52 -19 -24 -26 -26 -61 -21 -85 14 -198 90 -211 142 -8 31 12
84 24 64 22 -36 364 -64 495 -40 28 5 72 13 99 16 36 5 50 12 54 26 4 16 7 17
18 6 7 -7 15 -24 19 -38z"/>
<path d="M785 1397 c-96 -32 -168 -88 -150 -117 10 -16 32 -12 88 17 73 37
168 42 266 15 40 -12 79 -18 87 -15 17 6 19 47 2 61 -49 39 -223 62 -293 39z"/>
<path d="M1467 1399 c-44 -10 -99 -37 -109 -53 -12 -18 -9 -43 6 -49 8 -3 47
3 87 15 98 27 193 22 266 -15 60 -31 81 -33 89 -12 8 19 -10 41 -57 71 -76 48
-189 65 -282 43z"/>
<path d="M775 1170 c-41 -14 -75 -34 -107 -66 -27 -25 -48 -48 -48 -52 0 -4
10 -12 23 -18 12 -6 47 -24 77 -40 47 -25 66 -29 135 -29 73 0 87 3 160 39 44
22 82 41 84 42 7 6 -47 89 -73 113 -37 35 -164 40 -251 11z m115 -30 c0 -5 -8
-14 -18 -19 -20 -11 -56 4 -47 20 8 12 65 12 65 -1z m139 -37 c17 -21 31 -41
31 -45 0 -4 -30 -22 -67 -40 -58 -27 -79 -32 -143 -32 -61 0 -83 4 -120 24
-25 14 -46 33 -48 41 -3 15 70 79 89 79 3 0 9 -18 13 -39 10 -65 80 -101 137
-71 26 14 52 68 46 96 -7 37 26 30 62 -13z"/>
<path d="M1445 1181 c-28 -12 -59 -49 -83 -95 l-19 -40 91 -43 c86 -42 95 -44
161 -40 52 3 85 11 125 32 30 15 65 33 77 39 13 6 23 16 23 23 0 18 -80 83
-130 106 -49 22 -209 34 -245 18z m133 -43 c-7 -20 -54 -22 -61 -4 -5 13 1 16
29 16 24 0 34 -4 32 -12z m-101 -20 c-14 -54 36 -108 99 -108 36 0 84 51 84
89 0 17 4 31 8 31 11 0 88 -55 96 -69 10 -15 -42 -50 -102 -67 -67 -20 -123
-14 -203 22 -81 36 -84 43 -48 87 35 42 75 51 66 15z"/>
<path d="M1309 1073 c-15 -40 -6 -180 16 -228 24 -56 30 -28 10 57 -15 67 -15
126 1 181 9 28 -16 19 -27 -10z"/>
<path d="M1024 744 c-13 -19 -15 -32 -8 -52 9 -26 15 -29 149 -79 48 -18 84
-13 177 24 49 19 73 34 79 50 9 25 -2 66 -21 78 -16 10 -26 -3 -12 -17 7 -7
12 -25 12 -41 0 -22 -4 -28 -16 -23 -9 3 -20 6 -25 6 -5 0 -9 12 -9 28 l-1 27
-16 -30 c-25 -46 -42 -54 -111 -55 -72 0 -96 9 -116 48 -14 26 -15 26 -16 5 0
-13 -4 -23 -9 -23 -5 0 -16 -3 -25 -6 -12 -5 -16 1 -16 24 0 17 5 34 10 37 6
3 10 10 10 16 0 18 -20 9 -36 -17z"/>
</g>
</svg>
