<?xml version="1.0" standalone="no"?>
<!DOCTYPE svg PUBLIC "-//W3C//DTD SVG 20010904//EN"
 "http://www.w3.org/TR/2001/REC-SVG-20010904/DTD/svg10.dtd">
<svg version="1.0" xmlns="http://www.w3.org/2000/svg"
 width="360.000000pt" height="360.000000pt" viewBox="0 0 360.000000 360.000000"
 preserveAspectRatio="xMidYMid meet">
<metadata>
Created by potrace 1.11, written by Peter Selinger 2001-2013
</metadata>
<g transform="translate(0.000000,360.000000) scale(0.100000,-0.100000)"
fill="#000000" stroke="none">
<path d="M595 3562 c-88 -9 -256 -71 -292 -108 -8 -8 -17 -14 -21 -14 -9 0
-98 -85 -131 -124 -46 -56 -108 -188 -127 -271 -4 -16 -8 -577 -10 -1245 -5
-1362 -9 -1269 70 -1430 31 -65 58 -102 112 -155 39 -38 78 -76 87 -83 34 -26
134 -73 202 -95 l70 -22 1245 0 1245 0 75 24 c84 26 128 47 192 90 151 103
255 274 276 454 4 34 7 591 6 1237 -1 1091 -2 1180 -19 1245 -22 87 -58 165
-105 230 -38 51 -119 135 -132 135 -3 0 -13 6 -20 13 -38 37 -159 93 -226 103
-21 3 -41 9 -47 12 -10 7 -2391 10 -2450 4z"/>
</g>
</svg>
