<?xml version="1.0" standalone="no"?>
<!DOCTYPE svg PUBLIC "-//W3C//DTD SVG 20010904//EN"
 "http://www.w3.org/TR/2001/REC-SVG-20010904/DTD/svg10.dtd">
<svg version="1.0" xmlns="http://www.w3.org/2000/svg"
 width="244.000000pt" height="244.000000pt" viewBox="0 0 244.000000 244.000000"
 preserveAspectRatio="xMidYMid meet">
<metadata>
Created by potrace 1.11, written by Peter Selinger 2001-2013
</metadata>
<g transform="translate(0.000000,244.000000) scale(0.100000,-0.100000)"
fill="#000000" stroke="none">
<path d="M1130 2402 c-19 -15 -29 -18 -44 -10 -10 5 -32 7 -50 4 -17 -4 -45
-6 -61 -6 -43 1 -234 -45 -270 -64 -16 -9 -37 -16 -45 -16 -26 0 -59 -29 -80
-71 -11 -21 -26 -39 -33 -39 -16 0 -57 -42 -57 -58 0 -7 -12 -22 -26 -35 -49
-42 -68 -114 -45 -172 5 -11 2 -35 -7 -57 -12 -31 -13 -44 -2 -80 16 -55 20
-97 25 -288 3 -85 10 -179 15 -209 6 -30 10 -69 10 -87 0 -31 -1 -33 -33 -27
-26 4 -40 -1 -65 -22 -55 -46 -65 -145 -27 -271 17 -59 118 -176 169 -198 29
-12 32 -19 49 -101 10 -49 29 -112 42 -140 34 -71 130 -173 243 -256 53 -40
120 -89 148 -110 80 -61 115 -71 239 -72 89 -1 117 2 145 17 77 41 323 231
384 298 80 85 111 147 133 262 17 88 17 88 60 109 57 29 140 129 159 192 52
167 10 302 -90 294 -19 -2 -38 -1 -41 2 -3 4 1 48 10 100 8 52 15 151 15 220
0 90 4 137 15 163 9 20 13 46 10 59 -4 12 1 36 9 52 22 41 20 94 -4 133 -11
18 -18 37 -15 43 4 5 -1 23 -9 41 -9 17 -16 44 -16 60 0 56 -26 97 -74 119
-25 10 -47 28 -51 38 -3 11 -23 26 -45 35 -22 8 -46 26 -55 40 -21 32 -67 50
-115 43 -30 -4 -43 -1 -56 14 -9 10 -28 19 -42 19 -13 0 -37 11 -54 25 -28 24
-34 25 -116 19 -48 -3 -91 -5 -97 -4 -104 12 -132 11 -155 -8z m440 -606 c120
-16 201 -43 249 -84 34 -28 35 -31 39 -118 3 -71 11 -106 38 -175 l34 -86 -6
-189 c-5 -161 -10 -206 -35 -304 -15 -63 -35 -155 -44 -205 -8 -49 -20 -103
-27 -120 -16 -42 -89 -143 -136 -188 l-39 -39 5 74 c2 40 9 76 14 79 6 4 7 17
3 30 -14 45 -48 81 -93 102 -43 18 -67 20 -352 19 -328 0 -353 -4 -407 -54
-28 -26 -48 -84 -35 -101 5 -7 9 -25 9 -42 0 -16 3 -48 6 -70 l7 -40 -66 70
c-75 80 -107 139 -129 243 -8 41 -27 119 -41 175 -19 72 -29 147 -35 257 -5
85 -13 180 -17 210 -9 59 5 115 47 198 16 32 22 64 24 132 4 103 17 129 83
167 91 53 228 71 549 72 162 0 287 -4 355 -13z m-1121 -665 c7 -5 12 -13 10
-18 -2 -6 -17 -2 -34 8 -25 16 -26 19 -10 19 11 0 26 -4 34 -9z m1606 -1 c3
-6 -1 -7 -10 -4 -8 4 -26 -1 -40 -10 -21 -14 -25 -14 -25 -2 0 23 62 37 75 16z
m-1661 -26 c14 -5 14 -8 -1 -30 -36 -55 9 -197 84 -268 38 -35 46 -63 13 -46
-35 19 -101 117 -116 172 -14 55 -18 135 -8 162 7 18 7 18 28 10z m1680 -10
c17 -45 -5 -189 -37 -237 -33 -49 -100 -112 -105 -98 -2 7 12 29 32 47 75 69
125 238 81 274 -8 7 -12 16 -9 21 9 14 31 10 38 -7z m-599 -594 c8 -13 -55
-28 -166 -40 -103 -10 -247 1 -321 25 -40 14 -31 14 122 11 135 -4 257 1 347
12 6 1 14 -2 18 -8z m95 -71 c0 -83 -210 -198 -263 -144 -23 22 -21 42 3 48
11 3 20 10 20 16 0 7 -39 11 -116 11 -102 0 -115 -2 -104 -15 7 -8 19 -15 26
-15 22 0 16 -38 -7 -51 -72 -38 -259 66 -259 145 0 37 8 50 24 37 26 -21 196
-45 316 -46 145 0 330 30 330 53 0 12 3 12 15 2 8 -7 15 -25 15 -41z"/>
<path d="M775 1396 c-79 -25 -145 -74 -145 -108 0 -30 24 -31 77 -4 92 49 167
53 300 19 51 -13 65 -13 78 -3 77 64 -169 140 -310 96z"/>
<path d="M1440 1393 c-64 -17 -90 -37 -90 -70 0 -33 20 -37 87 -17 34 10 92
17 138 17 69 0 89 -4 145 -30 35 -17 70 -28 78 -26 26 11 9 56 -33 84 -82 56
-212 73 -325 42z"/>
<path d="M779 1176 c-25 -6 -58 -21 -75 -33 -34 -25 -100 -91 -93 -95 2 -2 38
-21 78 -42 64 -34 86 -40 153 -44 73 -4 82 -2 154 32 42 20 82 36 90 36 8 0
14 8 14 18 0 27 -68 122 -96 132 -35 14 -170 11 -225 -4z m101 -40 c0 -8 -6
-16 -13 -19 -19 -7 -41 8 -33 22 10 16 46 14 46 -3z m146 -32 c19 -19 34 -39
34 -43 0 -5 -33 -23 -72 -42 -95 -43 -180 -46 -254 -8 -27 14 -50 32 -52 40
-2 13 75 79 92 79 3 0 6 -14 6 -31 0 -45 47 -89 95 -89 50 0 95 44 95 94 0 45
14 45 56 0z"/>
<path d="M1440 1183 c-27 -10 -52 -38 -76 -85 -28 -54 -30 -68 -10 -68 8 0 48
-16 90 -36 72 -34 81 -36 154 -32 67 4 89 10 153 44 40 21 76 40 79 42 3 2
-21 28 -53 58 -70 65 -126 84 -241 83 -45 0 -88 -3 -96 -6z m130 -48 c0 -15
-43 -12 -48 3 -3 10 4 13 22 10 15 -2 26 -7 26 -13z m-95 -36 c0 -52 38 -89
91 -89 47 0 94 45 94 89 0 17 4 31 8 31 19 0 93 -64 90 -78 -2 -9 -24 -27 -51
-40 -72 -38 -162 -36 -250 5 -76 36 -82 50 -38 94 41 41 56 38 56 -12z"/>
<path d="M1315 1087 c-24 -38 -28 -105 -11 -181 9 -38 21 -76 27 -83 22 -26
27 -2 12 55 -10 39 -14 84 -10 145 2 48 3 87 1 87 -2 0 -10 -10 -19 -23z"/>
<path d="M1032 759 c-22 -20 -29 -63 -14 -86 4 -6 39 -24 77 -40 92 -37 165
-37 254 0 36 15 68 33 73 40 14 22 8 63 -13 85 -25 28 -45 19 -24 -11 23 -33
20 -59 -7 -55 -17 2 -24 11 -26 31 -4 36 -18 35 -25 -2 -8 -39 -39 -54 -109
-54 -65 1 -108 22 -108 53 0 32 -20 33 -26 1 -4 -16 -13 -32 -21 -35 -22 -9
-28 24 -10 55 20 35 8 45 -21 18z"/>
<path d="M1787 673 c-35 -38 -56 -90 -62 -160 l-5 -58 28 80 c16 44 39 99 51
123 12 23 20 42 18 42 -2 0 -15 -12 -30 -27z"/>
<path d="M646 660 c10 -19 30 -73 45 -120 23 -71 28 -79 28 -49 1 55 -27 137
-60 172 l-30 32 17 -35z"/>
</g>
</svg>
